<?xml version="1.0" encoding="UTF-8"?>
<svg width="105px" height="16px" viewBox="0 0 105 16" version="1.1" xmlns="http://www.w3.org/2000/svg" xmlns:xlink="http://www.w3.org/1999/xlink">
    <title>altinn logo</title>
    <g id="Be-om-tilgang-i-Altinn" stroke="none" stroke-width="1" fill="none" fill-rule="evenodd">
        <g id="ikke-tilgang-arbeidsforhold---be-om-tilgang-med-lenkepanel" transform="translate(-348.000000, -492.000000)" fill="#0062BA">
            <g id="altinn-logo" transform="translate(348.000000, 492.000000)">
                <g id="a-logo-blue-Altinn">
                    <g id="altinn" transform="translate(51.200000, 0.000000)" fill-rule="nonzero">
                        <path d="M7.30426666,15.7957334 L7.30426666,14.8026666 C6.53146666,15.5745334 5.80346666,15.9058666 4.48,15.9058666 C3.178,15.9058666 2.22973334,15.5745334 1.5456,14.8913334 C0.9268,14.2510666 0.5964,13.3252 0.5964,12.3097334 C0.5964,10.4785334 1.8536,8.97866664 4.52293334,8.97866664 L7.23613334,8.97866664 L7.23613334,8.4056 C7.23613334,7.1484 6.61826666,6.5968 5.096,6.5968 C3.9928,6.5968 3.486,6.86186666 2.8896,7.546 L1.0584,5.75866666 C2.18306666,4.52293334 3.28626666,4.17013334 5.20613334,4.17013334 C8.42706664,4.17013334 10.1033334,5.53746666 10.1033334,8.2292 L10.1033334,15.7966666 L7.30426666,15.7966666 L7.30426666,15.7957334 Z M7.238,10.9424 L4.96533334,10.9424 C3.9284,10.9424 3.35533334,11.4277334 3.35533334,12.2434666 C3.35533334,13.0377334 3.88453334,13.5669334 5.0092,13.5669334 C5.80346666,13.5669334 6.3112,13.5006666 6.81893334,13.0153334 C7.12786666,12.7288 7.238,12.2658666 7.238,11.5593334 L7.238,10.9424 L7.238,10.9424 Z" id="Shape"></path>
                        <path d="M15.8844,15.7957334 C13.524,15.7957334 12.5309334,14.1409334 12.5309334,12.5085334 L12.5309334,0.0886666664 L15.3990666,0.0886666664 L15.3990666,12.3321334 C15.3990666,13.0162666 15.6865334,13.3690666 16.4145334,13.3690666 L17.5177334,13.3690666 L17.5177334,15.7957334 L15.8844,15.7957334 L15.8844,15.7957334 Z" id="Shape"></path>
                        <path d="M22.8554666,15.7957334 C20.5174666,15.7957334 19.5244,14.1409334 19.5244,12.5085334 L19.5244,6.81706666 L18.3110666,6.81706666 L18.3110666,4.63306666 L19.5244,4.63306666 L19.5244,1.23573334 L22.3925334,1.23573334 L22.3925334,4.63306666 L24.4216,4.63306666 L24.4216,6.81706666 L22.3925334,6.81706666 L22.3925334,12.3321334 C22.3925334,12.9938666 22.7014666,13.3690666 23.3856,13.3690666 L24.4225334,13.3690666 L24.4225334,15.7957334 L22.8554666,15.7957334 L22.8554666,15.7957334 Z" id="Shape"></path>
                        <path d="M26.4282666,2.33893334 L26.4282666,0 L29.3626666,0 L29.3626666,2.33893334 L26.4282666,2.33893334 L26.4282666,2.33893334 Z M26.4730666,15.7957334 L26.4730666,4.30173334 L29.3412,4.30173334 L29.3412,15.7957334 L26.4730666,15.7957334 L26.4730666,15.7957334 Z" id="Shape"></path>
                        <path d="M38.6717334,15.7957334 L38.6717334,8.84613336 C38.6717334,7.28 37.6786666,6.74986666 36.7752,6.74986666 C35.8708,6.74986666 34.8553334,7.27906666 34.8553334,8.84613336 L34.8553334,15.7948 L31.9872,15.7948 L31.9872,4.30173334 L34.7890666,4.30173334 L34.7890666,5.36013334 C35.5385334,4.56586666 36.5978666,4.1692 37.6572,4.1692 C38.8042666,4.1692 39.7310666,4.5444 40.3704,5.18373334 C41.2962666,6.1096 41.5398666,7.19133334 41.5398666,8.44853336 L41.5398666,15.7948 L38.6717334,15.7948 L38.6717334,15.7957334 Z" id="Shape"></path>
                        <path d="M50.7593334,15.7957334 L50.7593334,8.84613336 C50.7593334,7.28 49.7662666,6.74986666 48.8628,6.74986666 C47.9584,6.74986666 46.9429334,7.27906666 46.9429334,8.84613336 L46.9429334,15.7948 L44.0748,15.7948 L44.0748,4.30173334 L46.8766666,4.30173334 L46.8766666,5.36013334 C47.6261334,4.56586666 48.6854666,4.1692 49.7448,4.1692 C50.8918666,4.1692 51.8186666,4.5444 52.458,5.18373334 C53.3838666,6.1096 53.6274666,7.19133334 53.6274666,8.44853336 L53.6274666,15.7948 L50.7593334,15.7948 L50.7593334,15.7957334 Z" id="Shape"></path>
                    </g>
                    <g id="logoelement" fill-rule="nonzero">
                        <rect id="Rectangle-35" x="32" y="0" width="9.6" height="3.2"></rect>
                        <rect id="Rectangle-35" x="32" y="6.4" width="9.6" height="3.2"></rect>
                        <rect id="Rectangle-35" x="32" y="12.8" width="9.6" height="3.2"></rect>
                        <rect id="Rectangle-35" x="0" y="0" width="3.2" height="3.2"></rect>
                        <rect id="Rectangle-35" x="0" y="6.4" width="3.2" height="3.2"></rect>
                        <rect id="Rectangle-35" x="0" y="12.8" width="3.2" height="3.2"></rect>
                        <rect id="Rectangle-35" x="6.4" y="0" width="3.2" height="3.2"></rect>
                        <rect id="Rectangle-35" x="6.4" y="6.4" width="3.2" height="3.2"></rect>
                        <rect id="Rectangle-35" x="6.4" y="12.8" width="3.2" height="3.2"></rect>
                        <polygon id="Rectangle-32" points="12.8 0 28.8 0 28.8 9.6 25.6 9.6 25.6 3.2 12.8 3.2"></polygon>
                        <rect id="Rectangle-32" x="19.2" y="6.4" width="3.2" height="3.2"></rect>
                        <polygon id="Rectangle-32" points="12.8 6.4 16 6.4 16 12.8 28.8 12.8 28.8 16 12.8 16"></polygon>
                    </g>
                </g>
            </g>
        </g>
    </g>
</svg>